<?xml version="1.0" encoding="UTF-8" standalone="no" ?>
<!DOCTYPE svg PUBLIC "-//W3C//DTD SVG 1.1//EN" "http://www.w3.org/Graphics/SVG/1.1/DTD/svg11.dtd">
<svg xmlns="http://www.w3.org/2000/svg" xmlns:xlink="http://www.w3.org/1999/xlink" version="1.1" width="150" height="150" viewBox="0 0 1080 1080" xml:space="preserve">
<desc>Created with Fabric.js 5.2.4</desc>
<defs>
</defs>
<rect x="0" y="0" width="100%" height="100%" fill="transparent"></rect>
<g transform="matrix(1 0 0 1 540 540)" id="99c152a4-ecae-48a5-bf72-bfc1b6a85f73"  >
<rect style="stroke: none; stroke-width: 1; stroke-dasharray: none; stroke-linecap: butt; stroke-dashoffset: 0; stroke-linejoin: miter; stroke-miterlimit: 4; fill: rgb(255,255,255); fill-rule: nonzero; opacity: 1; visibility: hidden;" vector-effect="non-scaling-stroke"  x="-540" y="-540" rx="0" ry="0" width="1080" height="1080" />
</g>
<g transform="matrix(1 0 0 1 540 540)" id="16f474df-969b-42a3-af49-00c6d41849fb"  >
</g>
<g transform="matrix(1 0 0 1 540 540)"  >
<g style="" vector-effect="non-scaling-stroke"   >
		<g transform="matrix(2.7 0 0 2.7 0 0)"  >
<path style="stroke: none; stroke-width: 1; stroke-dasharray: none; stroke-linecap: butt; stroke-dashoffset: 0; stroke-linejoin: miter; stroke-miterlimit: 4; fill: rgb(99,41,18); fill-rule: nonzero; opacity: 1;" vector-effect="non-scaling-stroke"  transform=" translate(-148.24, -148.24)" d="M 244.63 35.621 C 222.85899999999998 16.986 197.248 5.766000000000002 170.863 1.7190000000000012 C 121.871 -5.797 70.223 11.421 35.622 51.847 C -17.613999999999997 114.045 -10.350000000000001 207.62 51.848 260.85699999999997 C 73.619 279.491 99.229 290.71 125.614 294.758 C 174.60500000000002 302.275 226.255 285.055 260.855 244.628 C 314.091 182.431 306.826 88.856 244.63 35.621 z M 273.361 191.241 L 228.05599999999998 175.62300000000002 C 234.158 157.82000000000002 234.08399999999997 138.51600000000002 228.07 120.89900000000003 L 273.327 105.32400000000003 C 276.904 115.77700000000003 279.189 126.75300000000003 280.067 138.06500000000003 C 281.489 156.374 279.152 174.388 273.361 191.241 z M 275.905 104.058 C 275.905 104.055 275.905 104.05300000000001 275.905 104.05000000000001 C 275.905 104.053 275.905 104.055 275.905 104.058 z M 247.935 61.472 L 211.86599999999999 92.804 C 209.19699999999997 89.749 206.28699999999998 86.843 203.11399999999998 84.12700000000001 C 191.64699999999996 74.31300000000002 178.30399999999997 68.132 164.47699999999998 65.435 L 173.57199999999997 18.694000000000003 C 195.902 23.024 216.78199999999998 32.988 234.20699999999997 47.903000000000006 C 239.147 52.131 243.728 56.669 247.935 61.472 z M 103.251 23.983 C 109.679 21.668 116.272 19.874000000000002 122.96100000000001 18.595 L 132.048 65.438 C 114.259 68.905 97.464 78.089 84.655 92.779 L 48.55 61.38 C 63.334 44.416 82.206 31.568 103.251 23.983 z M 23.124 105.236 L 68.42099999999999 120.85300000000001 C 62.31899999999999 138.656 62.392999999999994 157.958 68.40599999999999 175.57600000000002 L 23.11099999999999 191.16400000000002 C 19.54899999999999 180.723 17.27399999999999 169.764 16.39799999999999 158.476 C 14.976 140.151 17.32 122.11 23.124 105.236 z M 48.467 235.066 L 84.612 203.671 C 87.28099999999999 206.727 90.192 209.635 93.366 212.351 C 104.832 222.165 118.174 228.344 132 231.042 L 122.857 278.039 C 100.532 273.691 79.672 263.61699999999996 62.253 248.706 C 57.288 244.458 52.689 239.898 48.467 235.066 z M 193.203 272.635 C 186.794 274.944 180.217 276.745 173.54500000000002 278.038 L 164.42800000000003 231.038 C 182.21700000000004 227.571 199.01300000000003 218.387 211.82200000000003 203.69600000000003 L 247.94300000000004 235.10500000000002 C 233.154 252.087 214.257 265.047 193.203 272.635 z" stroke-linecap="round" />
</g>
		<g transform="matrix(2.7 0 0 2.7 -148.05 -255.64)"  >
<circle style="stroke: none; stroke-width: 1; stroke-dasharray: none; stroke-linecap: butt; stroke-dashoffset: 0; stroke-linejoin: miter; stroke-miterlimit: 4; fill: rgb(99,41,18); fill-rule: nonzero; opacity: 1;" vector-effect="non-scaling-stroke"  cx="0" cy="0" r="8" />
</g>
		<g transform="matrix(2.7 0 0 2.7 -295.42 0.39)"  >
<circle style="stroke: none; stroke-width: 1; stroke-dasharray: none; stroke-linecap: butt; stroke-dashoffset: 0; stroke-linejoin: miter; stroke-miterlimit: 4; fill: rgb(99,41,18); fill-rule: nonzero; opacity: 1;" vector-effect="non-scaling-stroke"  cx="0" cy="0" r="8" />
</g>
		<g transform="matrix(2.7 0 0 2.7 -147.37 256.03)"  >
<circle style="stroke: none; stroke-width: 1; stroke-dasharray: none; stroke-linecap: butt; stroke-dashoffset: 0; stroke-linejoin: miter; stroke-miterlimit: 4; fill: rgb(99,41,18); fill-rule: nonzero; opacity: 1;" vector-effect="non-scaling-stroke"  cx="0" cy="0" r="8" />
</g>
		<g transform="matrix(2.7 0 0 2.7 148.05 255.64)"  >
<circle style="stroke: none; stroke-width: 1; stroke-dasharray: none; stroke-linecap: butt; stroke-dashoffset: 0; stroke-linejoin: miter; stroke-miterlimit: 4; fill: rgb(99,41,18); fill-rule: nonzero; opacity: 1;" vector-effect="non-scaling-stroke"  cx="0" cy="0" r="8.001" />
</g>
		<g transform="matrix(2.7 0 0 2.7 295.41 -0.4)"  >
<circle style="stroke: none; stroke-width: 1; stroke-dasharray: none; stroke-linecap: butt; stroke-dashoffset: 0; stroke-linejoin: miter; stroke-miterlimit: 4; fill: rgb(99,41,18); fill-rule: nonzero; opacity: 1;" vector-effect="non-scaling-stroke"  cx="0" cy="0" r="8" />
</g>
		<g transform="matrix(2.7 0 0 2.7 147.37 -256.04)"  >
<circle style="stroke: none; stroke-width: 1; stroke-dasharray: none; stroke-linecap: butt; stroke-dashoffset: 0; stroke-linejoin: miter; stroke-miterlimit: 4; fill: rgb(99,41,18); fill-rule: nonzero; opacity: 1;" vector-effect="non-scaling-stroke"  cx="0" cy="0" r="8" />
</g>
</g>
</g>
<g transform="matrix(1 0 0 1 540 540)" style="" id="c8ed6b35-e257-4d37-b917-d7094515cc84"  >
		<text xml:space="preserve" font-family="Raleway" font-size="105" font-style="normal" font-weight="900" style="stroke: none; stroke-width: 1; stroke-dasharray: none; stroke-linecap: butt; stroke-dashoffset: 0; stroke-linejoin: miter; stroke-miterlimit: 4; fill: rgb(243,243,243); fill-rule: nonzero; opacity: 1; white-space: pre;" ><tspan x="-126.21" y="32.98" >5000</tspan></text>
</g>
</svg>